<svg width="49" height="48" viewBox="0 0 49 48" fill="none" xmlns="http://www.w3.org/2000/svg">
<path d="M24.7105 0C11.5538 0 0.875977 10.752 0.875977 24C0.875977 37.248 11.5538 48 24.7105 48C37.8671 48 48.5449 37.248 48.5449 24C48.5449 10.752 37.8671 0 24.7105 0ZM24.7105 7.2C28.667 7.2 31.8608 10.416 31.8608 14.4C31.8608 18.384 28.667 21.6 24.7105 21.6C20.7539 21.6 17.5601 18.384 17.5601 14.4C17.5601 10.416 20.7539 7.2 24.7105 7.2ZM24.7105 41.28C18.7518 41.28 13.4844 38.208 10.4098 33.552C10.4813 28.776 19.9436 26.16 24.7105 26.16C29.4535 26.16 38.9396 28.776 39.0111 33.552C35.9365 38.208 30.6691 41.28 24.7105 41.28Z" fill="#C4C4C4"/>
</svg>
